<?xml version="1.0" encoding="UTF-8"?>
<!DOCTYPE svg PUBLIC "-//W3C//DTD SVG 1.1//EN" "http://www.w3.org/Graphics/SVG/1.1/DTD/svg11.dtd">
<!-- Creator: CorelDRAW -->
<svg xmlns="http://www.w3.org/2000/svg" xml:space="preserve" width="3.18004in" height="1.22665in" version="1.1" style="shape-rendering:geometricPrecision; text-rendering:geometricPrecision; image-rendering:optimizeQuality; fill-rule:evenodd; clip-rule:evenodd"
viewBox="0 0 344.61 132.93"
 xmlns:xlink="http://www.w3.org/1999/xlink"
 xmlns:xodm="http://www.corel.com/coreldraw/odm/2003">
 <defs>
  <style type="text/css">
   <![CDATA[
    .fil0 {fill:#ED3237}
    .fil1 {fill:#FEFEFE;fill-rule:nonzero}
   ]]>
  </style>
 </defs>
 <g id="Layer_x0020_1">
  <metadata id="CorelCorpID_0Corel-Layer"/>
  <g id="_2852698078768">
   <g>
    <path class="fil0" d="M55.36 53.12c0.55,0.75 0.02,0.2 0.95,0.62l18.77 7.22 -3.98 3.86c-10.3,9.07 -23.21,19.22 -37.93,19.22 -4.26,0 -8.41,-1.73 -10.89,-5.02 -2.73,-3.61 -3.45,-8.76 -3.45,-14.25 0,-11.58 4.83,-21.06 11.21,-29.58 0.42,-0.56 0.76,-1.09 1.29,-1.63 3.02,-3.09 3.19,-3.89 7.49,-7.08 17.44,-12.97 40.26,-12.99 55.61,2.38 1.16,1.16 5.16,6.03 5.54,7.68 -1.83,0.43 -3.92,1.37 -5.63,1.99l-22.25 8.23c-1.95,0.69 -3.72,1.41 -5.55,2.07l-11.18 4.28zm-26 50.43c11.18,0 13.74,-0.49 23.79,-3.78 1.93,-0.63 3.68,-1.54 5.54,-2.3 5.44,-2.22 14.6,-8.14 19.53,-11.62 4.79,-3.38 14.04,-10.96 17.76,-15.19l6.38 -7.3c1.24,-1.47 2.26,-2.88 3.48,-4.36 3.07,-3.73 12.04,-16.15 14.78,-20.18 1.86,-2.73 2.84,-2.72 1.49,-4.94 -2.08,-3.39 -2.42,-4.59 -5.25,-8.2 -0.35,-0.44 -0.51,-0.72 -0.86,-1.16l-7.69 -7.99c-0.42,-0.42 -0.52,-0.51 -0.95,-0.84 -6.84,-5.27 -7.28,-5.71 -15.69,-9.86 -8.34,-4.13 -18.87,-5.82 -28.24,-5.82 -10.61,0 -20.29,3.13 -28.99,7.77 -2.86,1.52 -5.04,3.03 -7.54,4.78 -1.14,0.8 -2.28,1.75 -3.4,2.66 -8.63,6.99 -15.86,19.2 -19.91,29.39 -1.68,4.22 -2.7,10.42 -3.3,15.08 -0.27,2.11 -0.28,6.19 -0.29,8.46 -0.01,3.52 1.05,10.44 1.94,13.52 1.15,3.94 1.91,5.43 3.59,8.74 4.35,8.55 14.3,13.15 23.83,13.15z"/>
    <path class="fil0" d="M56.26 117.22c-11.01,0 -17.64,-0.46 -27.65,-3.95 -4.55,-1.59 -9.24,-3.91 -13.18,-6.54 -0.96,-0.65 -3.41,-2.58 -3.99,-2.74 0.66,2.49 7.12,9.02 9.13,11.04 8.82,8.84 21.18,14.65 33.54,16.88 11.79,2.13 25.5,1.02 36.21,-4.39l2.69 -1.35c8.13,-4.24 11.81,-7.73 17.99,-13.84l3.66 -4.19c6.29,-7.95 10.92,-16 13.45,-26.22 5.04,-20.33 -1.2,-34.28 -1.26,-36.89 -0.87,0.23 -0.94,0.73 -1.95,2.31 -0.4,0.63 -0.51,0.69 -0.9,1.34 -0.34,0.57 -0.51,0.82 -0.88,1.36l-7.16 10.77c-0.63,1.04 -1.13,1.68 -1.8,2.68l-2.63 3.87c-1.15,1.53 -0.79,3.13 -1.25,5.47 -0.99,4.98 -2.22,8.96 -4.35,13.58l-3.2 5.77c-6.94,10.6 -18.53,19.09 -31.02,22.54 -4.3,1.19 -10.03,2.46 -15.47,2.46z"/>
   </g>
   <path class="fil1" d="M240.19 43.62l-8.97 -32.5 -23.04 0 -49.24 84.89 23.04 0 43.42 -21.83 24.5 -32.02 -51.66 25.71 17.22 -29.59 4.12 15.28 20.62 -9.94zm14.07 52.39l-10.67 -39.41 -17.46 22.56 5.09 16.86 23.04 0z"/>
   <path id="_1" class="fil1" d="M301.8 45.32c-9.58,0 -14.8,-2.43 -13.95,-8.25 0.61,-4.61 5.34,-8.97 11.52,-8.97l33.23 0 12.01 -16.98 -54.82 0c-15.52,0 -24.01,16.61 -24.01,30.44 0,13.22 7.88,20.74 25.83,20.74l11.28 0c9.58,0 14.8,2.3 13.95,8 -0.61,4.49 -3.15,8.73 -9.34,8.73l-40.02 0 -12.01 16.98 58.21 0c16.13,0 25.1,-15.28 25.1,-29.95 0,-13.22 -8.49,-20.74 -33.47,-20.74l-3.52 0z"/>
   <path class="fil1" d="M160.67 118.62l1.72 -0.8c0.16,0.59 0.47,1.04 0.9,1.36 0.43,0.31 0.99,0.47 1.67,0.47 0.65,0 1.15,-0.18 1.54,-0.54 0.38,-0.36 0.57,-0.83 0.57,-1.43 0,-0.78 -0.65,-1.48 -1.95,-2.09 -0.18,-0.09 -0.32,-0.16 -0.42,-0.2 -1.47,-0.72 -2.44,-1.36 -2.93,-1.94 -0.49,-0.58 -0.73,-1.29 -0.73,-2.12 0,-1.08 0.37,-1.96 1.1,-2.64 0.73,-0.67 1.7,-1.01 2.9,-1.01 0.98,0 1.8,0.19 2.46,0.57 0.66,0.38 1.12,0.92 1.37,1.63l-1.69 0.87c-0.27,-0.42 -0.56,-0.73 -0.88,-0.92 -0.32,-0.2 -0.69,-0.29 -1.1,-0.29 -0.58,0 -1.04,0.15 -1.39,0.46 -0.34,0.3 -0.51,0.71 -0.51,1.22 0,0.8 0.75,1.55 2.26,2.24 0.11,0.06 0.2,0.1 0.27,0.13 1.31,0.61 2.22,1.2 2.71,1.78 0.49,0.58 0.73,1.3 0.73,2.17 0,1.26 -0.4,2.26 -1.19,3 -0.79,0.74 -1.87,1.11 -3.22,1.11 -1.13,0 -2.06,-0.26 -2.78,-0.78 -0.72,-0.52 -1.2,-1.26 -1.42,-2.24z"/>
   <path id="_1_1" class="fil1" d="M192.92 114.66c0,-0.67 -0.12,-1.31 -0.37,-1.92 -0.24,-0.6 -0.6,-1.14 -1.06,-1.62 -0.45,-0.47 -0.97,-0.82 -1.56,-1.08 -0.59,-0.25 -1.22,-0.38 -1.87,-0.38 -0.65,0 -1.28,0.12 -1.87,0.37 -0.59,0.25 -1.12,0.61 -1.58,1.08 -0.46,0.47 -0.81,1 -1.05,1.61 -0.24,0.6 -0.36,1.25 -0.36,1.93 0,0.67 0.12,1.31 0.36,1.91 0.24,0.6 0.6,1.13 1.05,1.61 0.46,0.47 0.98,0.83 1.57,1.08 0.59,0.25 1.21,0.37 1.87,0.37 0.65,0 1.26,-0.12 1.85,-0.37 0.58,-0.25 1.11,-0.61 1.57,-1.08 0.46,-0.47 0.81,-1.01 1.06,-1.61 0.24,-0.6 0.37,-1.24 0.37,-1.9zm2.25 0c0,0.95 -0.18,1.84 -0.53,2.68 -0.36,0.84 -0.87,1.59 -1.55,2.25 -0.68,0.66 -1.45,1.17 -2.32,1.52 -0.86,0.35 -1.76,0.53 -2.7,0.53 -0.96,0 -1.87,-0.18 -2.74,-0.53 -0.87,-0.36 -1.63,-0.86 -2.3,-1.51 -0.68,-0.66 -1.19,-1.41 -1.54,-2.24 -0.35,-0.83 -0.53,-1.73 -0.53,-2.69 0,-0.95 0.18,-1.85 0.53,-2.69 0.35,-0.84 0.86,-1.6 1.54,-2.26 0.68,-0.66 1.45,-1.16 2.31,-1.51 0.86,-0.34 1.77,-0.52 2.73,-0.52 0.95,0 1.86,0.17 2.72,0.52 0.86,0.34 1.62,0.85 2.3,1.51 0.68,0.67 1.19,1.43 1.55,2.28 0.35,0.85 0.53,1.74 0.53,2.68z"/>
   <polygon id="_2" class="fil1" points="207.55,121.28 207.55,107.98 209.71,107.98 209.71,119.35 214.54,119.35 214.54,121.28 "/>
   <path id="_3" class="fil1" d="M225.81 107.98l2.14 0 0 8.08c0,1.2 0.28,2.1 0.83,2.7 0.56,0.6 1.38,0.91 2.49,0.91 1.09,0 1.92,-0.3 2.47,-0.91 0.56,-0.6 0.83,-1.5 0.83,-2.7l0 -8.08 2.16 0 0 8.27c0,1.8 -0.45,3.15 -1.36,4.04 -0.91,0.89 -2.28,1.34 -4.11,1.34 -1.83,0 -3.19,-0.45 -4.1,-1.34 -0.9,-0.89 -1.36,-2.24 -1.36,-4.04l0 -8.27z"/>
   <polygon id="_4" class="fil1" points="253.91,109.82 253.91,121.28 251.75,121.28 251.75,109.82 248.22,109.82 248.22,107.98 257.42,107.98 257.42,109.82 "/>
   <polygon id="_5" class="fil1" points="269.01,121.28 269.01,107.98 271.17,107.98 271.17,121.28 "/>
   <path id="_6" class="fil1" d="M295.56 114.66c0,-0.67 -0.12,-1.31 -0.37,-1.92 -0.24,-0.6 -0.6,-1.14 -1.06,-1.62 -0.45,-0.47 -0.97,-0.82 -1.56,-1.08 -0.59,-0.25 -1.22,-0.38 -1.87,-0.38 -0.65,0 -1.28,0.12 -1.87,0.37 -0.59,0.25 -1.12,0.61 -1.58,1.08 -0.46,0.47 -0.81,1 -1.05,1.61 -0.24,0.6 -0.36,1.25 -0.36,1.93 0,0.67 0.12,1.31 0.36,1.91 0.24,0.6 0.6,1.13 1.05,1.61 0.46,0.47 0.98,0.83 1.57,1.08 0.59,0.25 1.21,0.37 1.87,0.37 0.65,0 1.26,-0.12 1.85,-0.37 0.58,-0.25 1.11,-0.61 1.57,-1.08 0.46,-0.47 0.81,-1.01 1.06,-1.61 0.24,-0.6 0.37,-1.24 0.37,-1.9zm2.25 0c0,0.95 -0.18,1.84 -0.53,2.68 -0.36,0.84 -0.87,1.59 -1.55,2.25 -0.68,0.66 -1.45,1.17 -2.32,1.52 -0.86,0.35 -1.76,0.53 -2.7,0.53 -0.96,0 -1.87,-0.18 -2.74,-0.53 -0.87,-0.36 -1.63,-0.86 -2.3,-1.51 -0.68,-0.66 -1.19,-1.41 -1.54,-2.24 -0.35,-0.83 -0.53,-1.73 -0.53,-2.69 0,-0.95 0.18,-1.85 0.53,-2.69 0.35,-0.84 0.86,-1.6 1.54,-2.26 0.68,-0.66 1.45,-1.16 2.31,-1.51 0.86,-0.34 1.77,-0.52 2.73,-0.52 0.95,0 1.86,0.17 2.72,0.52 0.86,0.34 1.62,0.85 2.3,1.51 0.68,0.67 1.19,1.43 1.55,2.28 0.35,0.85 0.53,1.74 0.53,2.68z"/>
   <path id="_7" class="fil1" d="M310.19 121.28l0 -13.82 8.45 8.13c0.23,0.23 0.46,0.47 0.7,0.73 0.24,0.26 0.48,0.56 0.74,0.88l0 -9.22 1.99 0 0 13.82 -8.62 -8.28c-0.23,-0.23 -0.45,-0.46 -0.67,-0.71 -0.22,-0.25 -0.42,-0.51 -0.61,-0.78l0 9.25 -1.99 0z"/>
   <path id="_8" class="fil1" d="M334.27 118.62l1.72 -0.8c0.16,0.59 0.47,1.04 0.9,1.36 0.43,0.31 0.99,0.47 1.67,0.47 0.65,0 1.15,-0.18 1.54,-0.54 0.38,-0.36 0.57,-0.83 0.57,-1.43 0,-0.78 -0.65,-1.48 -1.95,-2.09 -0.18,-0.09 -0.32,-0.16 -0.42,-0.2 -1.47,-0.72 -2.44,-1.36 -2.93,-1.94 -0.49,-0.58 -0.73,-1.29 -0.73,-2.12 0,-1.08 0.37,-1.96 1.1,-2.64 0.73,-0.67 1.7,-1.01 2.9,-1.01 0.98,0 1.8,0.19 2.46,0.57 0.66,0.38 1.12,0.92 1.37,1.63l-1.69 0.87c-0.27,-0.42 -0.56,-0.73 -0.88,-0.92 -0.32,-0.2 -0.69,-0.29 -1.1,-0.29 -0.58,0 -1.04,0.15 -1.39,0.46 -0.34,0.3 -0.51,0.71 -0.51,1.22 0,0.8 0.75,1.55 2.26,2.24 0.11,0.06 0.2,0.1 0.27,0.13 1.31,0.61 2.22,1.2 2.71,1.78 0.49,0.58 0.73,1.3 0.73,2.17 0,1.26 -0.4,2.26 -1.19,3 -0.79,0.74 -1.87,1.11 -3.22,1.11 -1.13,0 -2.06,-0.26 -2.78,-0.78 -0.72,-0.52 -1.2,-1.26 -1.42,-2.24z"/>
  </g>
 </g>
</svg>
